<svg width="334" height="103" viewBox="0 0 334 103" fill="none" xmlns="http://www.w3.org/2000/svg">
<path d="M11.8409 33.4039C18.2642 33.4039 23.4714 28.0817 23.4714 21.5167C23.4714 14.9516 18.2642 9.62959 11.8409 9.62959C5.4176 9.62959 0.21051 14.9516 0.21051 21.5167C0.21051 28.0817 5.4176 33.4039 11.8409 33.4039Z" fill="#171717"/>
<path d="M43.1156 29.8759C47.6627 34.5237 47.6627 42.0391 43.1156 46.6869C40.1442 49.7235 35.9423 50.7819 32.1305 49.8312C32.1007 49.8158 32.0554 49.8003 31.9953 49.8003C31.7702 49.7235 31.5451 49.6471 31.3053 49.6011C28.6039 48.8801 26.0678 49.2943 24.4469 50.9506C22.7512 52.6841 22.3909 55.3989 23.2014 58.2672C23.2014 58.2977 23.2014 58.3286 23.2165 58.3591C24.357 62.3623 23.3664 66.8873 20.2749 70.0467C15.7278 74.6942 8.3743 74.6942 3.82721 70.0467C-0.71991 65.3993 -0.71991 57.8835 3.82721 53.2361C6.91876 50.0763 11.3458 49.0642 15.2776 50.2145C15.3075 50.2145 15.3377 50.2299 15.3528 50.245C18.1441 51.0429 20.8002 50.6746 22.4808 48.9415C24.1618 47.2083 24.5221 44.6314 23.8015 41.8704C23.7717 41.6866 23.7116 41.5025 23.6516 41.3184C22.6311 37.3766 23.6365 32.9897 26.668 29.8913C31.2151 25.2439 38.5686 25.2439 43.1156 29.8913V29.8759Z" fill="#171717"/>
<path d="M101.558 40.5703C97.4784 40.5703 94.2402 39.5098 91.8428 37.3886C89.4812 35.2673 88.3004 32.2687 88.3004 28.392H95.8145C95.8145 32.0856 97.729 33.9326 101.558 33.9326C103.239 33.9326 104.527 33.4755 105.422 32.5611C106.352 31.6467 106.817 30.5133 106.817 29.16C106.817 27.2949 106.245 25.8504 105.1 24.8263C103.955 23.7658 102.434 23.2536 100.538 23.2903L96.727 23.3451V17.0366H100.538C102.398 17.0366 103.865 16.616 104.939 15.7749C106.012 14.9337 106.549 13.7269 106.549 12.1543C106.549 10.7646 106.12 9.63086 105.261 8.75315C104.438 7.83885 103.204 7.38172 101.558 7.38172C99.84 7.38172 98.4804 7.82058 97.4784 8.69829C96.5123 9.53942 96.0292 10.7829 96.0292 12.4286H88.7834C88.7834 8.77142 89.9283 5.91885 92.2185 3.87086C94.5442 1.78629 97.6572 0.744003 101.558 0.744003C104.098 0.744003 106.281 1.23772 108.106 2.22515C109.966 3.17599 111.38 4.49256 112.346 6.17486C113.312 7.85716 113.795 9.74057 113.795 11.8251C113.795 15.6651 112.31 18.3531 109.34 19.8891C112.632 21.6813 114.278 24.8993 114.278 29.544C114.278 31.6286 113.777 33.5119 112.775 35.1943C111.773 36.84 110.306 38.1566 108.374 39.144C106.478 40.0947 104.205 40.5703 101.558 40.5703ZM118.489 1.45715H131.156C135.45 1.45715 138.778 2.49943 141.139 4.584C143.536 6.63199 144.735 9.63086 144.735 13.5806C144.735 17.5669 143.536 20.6205 141.139 22.7417C138.778 24.863 135.45 25.9234 131.156 25.9234H126.003V39.8571H118.489V1.45715ZM130.727 19.0114C134.985 19.0114 137.114 17.2194 137.114 13.6354C137.114 11.8434 136.559 10.5086 135.45 9.63086C134.376 8.75315 132.802 8.31429 130.727 8.31429H126.003V19.0114H130.727ZM159.945 40.5703C157.119 40.5703 154.578 39.912 152.324 38.5954C150.07 37.2422 148.298 35.4319 147.01 33.1646C145.722 30.8606 145.078 28.3553 145.078 25.6491C145.078 22.943 145.722 20.4377 147.01 18.1337C148.298 15.8297 150.07 14.0194 152.324 12.7029C154.578 11.3497 157.119 10.6731 159.945 10.6731C162.772 10.6731 165.313 11.3497 167.567 12.7029C169.821 14.0194 171.592 15.8297 172.881 18.1337C174.169 20.4377 174.813 22.943 174.813 25.6491C174.813 28.3553 174.169 30.8606 172.881 33.1646C171.592 35.4319 169.821 37.2422 167.567 38.5954C165.313 39.912 162.772 40.5703 159.945 40.5703ZM152.324 25.6491C152.324 27.1485 152.628 28.5199 153.236 29.7634C153.88 31.007 154.775 31.9944 155.92 32.7257C157.101 33.457 158.443 33.8229 159.945 33.8229C161.448 33.8229 162.772 33.457 163.917 32.7257C165.098 31.9944 165.993 31.007 166.601 29.7634C167.245 28.5199 167.567 27.1485 167.567 25.6491C167.567 24.1498 167.245 22.7784 166.601 21.5349C165.957 20.2913 165.062 19.3039 163.917 18.5726C162.772 17.8046 161.448 17.4206 159.945 17.4206C158.443 17.4206 157.119 17.8046 155.974 18.5726C154.829 19.3039 153.934 20.2913 153.29 21.5349C152.646 22.7784 152.324 24.1498 152.324 25.6491ZM178.02 11.3314H185.158V15.5006C186.625 12.2823 189.47 10.6731 193.692 10.6731C195.696 10.6731 197.503 11.1669 199.113 12.1543C200.723 13.1051 201.994 14.4766 202.924 16.2686C203.854 18.024 204.319 20.0719 204.319 22.4126V39.8571H197.074V24.2229C197.074 21.8458 196.537 20.0719 195.463 18.9017C194.39 17.7314 192.923 17.1463 191.062 17.1463C189.416 17.1463 188.039 17.7497 186.929 18.9566C185.82 20.1267 185.265 21.8822 185.265 24.2229V39.8571H178.02V11.3314ZM218.47 39.8571C215.643 39.8571 213.514 39.144 212.083 37.7177C210.651 36.2914 209.936 34.0605 209.936 31.0251V17.64H206.018V11.3314H209.936V5.57143L217.182 4.80343V11.3314H223.086V17.64H217.182V30.6411C217.182 32.3966 217.933 33.2743 219.436 33.2743H222.442V39.8571H218.47ZM238.568 40.5703C235.741 40.5703 233.2 39.912 230.946 38.5954C228.692 37.2422 226.921 35.4319 225.632 33.1646C224.344 30.8606 223.7 28.3553 223.7 25.6491C223.7 22.943 224.344 20.4377 225.632 18.1337C226.921 15.8297 228.692 14.0194 230.946 12.7029C233.2 11.3497 235.741 10.6731 238.568 10.6731C241.394 10.6731 243.935 11.3497 246.189 12.7029C248.443 14.0194 250.215 15.8297 251.503 18.1337C252.791 20.4377 253.435 22.943 253.435 25.6491C253.435 28.3553 252.791 30.8606 251.503 33.1646C250.215 35.4319 248.443 37.2422 246.189 38.5954C243.935 39.912 241.394 40.5703 238.568 40.5703ZM230.946 25.6491C230.946 27.1485 231.25 28.5199 231.858 29.7634C232.503 31.007 233.397 31.9944 234.542 32.7257C235.723 33.457 237.065 33.8229 238.568 33.8229C240.07 33.8229 241.394 33.457 242.539 32.7257C243.72 31.9944 244.615 31.007 245.223 29.7634C245.867 28.5199 246.189 27.1485 246.189 25.6491C246.189 24.1498 245.867 22.7784 245.223 21.5349C244.579 20.2913 243.685 19.3039 242.539 18.5726C241.394 17.8046 240.07 17.4206 238.568 17.4206C237.065 17.4206 235.741 17.8046 234.596 18.5726C233.451 19.3039 232.556 20.2913 231.912 21.5349C231.268 22.7784 230.946 24.1498 230.946 25.6491ZM265.619 40.5703C260.932 40.5703 257.067 38.9064 254.026 35.5783L258.91 31.0251C260.95 33.3658 263.132 34.536 265.458 34.536C266.675 34.536 267.623 34.2617 268.303 33.7131C268.983 33.1646 269.323 32.4514 269.323 31.5737C269.323 30.769 268.983 30.1474 268.303 29.7086C267.659 29.233 266.299 28.7393 264.224 28.2274C260.824 27.3864 258.534 26.2344 257.354 24.7714C256.208 23.3085 255.636 21.4982 255.636 19.3406C255.636 16.7806 256.566 14.696 258.427 13.0869C260.288 11.4411 262.828 10.6183 266.049 10.6183C268.374 10.6183 270.324 10.984 271.899 11.7154C273.509 12.4468 275.012 13.7269 276.407 15.5554L271.148 19.6697C269.895 17.6217 268.249 16.5977 266.21 16.5977C265.172 16.5977 264.331 16.8171 263.687 17.256C263.043 17.6583 262.721 18.28 262.721 19.1211C262.721 19.7064 262.953 20.2183 263.419 20.6571C263.92 21.0593 264.939 21.4618 266.478 21.864C270.307 22.8881 272.919 24.1498 274.314 25.6491C275.745 27.1485 276.461 29.0503 276.461 31.3543C276.461 33.073 275.978 34.6457 275.012 36.072C274.081 37.4616 272.793 38.5587 271.148 39.3634C269.501 40.1681 267.659 40.5703 265.619 40.5703Z" fill="#171717"/>
<path d="M105.798 91.8137C96.1232 91.8137 89.6891 84.7097 89.6891 73.9577C89.6891 63.2537 96.311 56.0057 106.032 56.0057C113.688 56.0057 119.558 60.6617 120.826 67.7657H115.895C114.627 63.2537 110.823 60.5177 105.892 60.5177C99.0349 60.5177 94.5264 65.7977 94.5264 73.9097C94.5264 82.0217 99.0349 87.3017 105.892 87.3017C110.87 87.3017 114.815 84.5657 116.083 80.2937H120.967C119.511 87.2057 113.453 91.8137 105.798 91.8137ZM124.356 79.5257C124.356 72.2777 129.428 67.1897 136.332 67.1897C143.188 67.1897 148.261 72.2777 148.261 79.5257C148.261 86.7737 143.188 91.8617 136.332 91.8617C129.428 91.8617 124.356 86.7737 124.356 79.5257ZM128.818 79.5257C128.818 84.4217 131.87 87.8297 136.332 87.8297C140.746 87.8297 143.846 84.4217 143.846 79.5257C143.846 74.6297 140.746 71.2217 136.332 71.2217C131.87 71.2217 128.818 74.6297 128.818 79.5257ZM157.562 91.2857H153.147V67.8137H157.092L157.515 70.8857C158.689 68.6777 161.131 67.1417 164.372 67.1417C167.941 67.1417 170.477 68.9657 171.651 71.8937C172.731 68.9657 175.502 67.1417 179.071 67.1417C184.331 67.1417 187.525 70.5017 187.525 75.9257V91.2857H183.204V77.0297C183.204 73.3337 181.185 71.2217 178.085 71.2217C174.751 71.2217 172.543 73.6217 172.543 77.3657V91.2857H168.176V76.9817C168.176 73.2857 166.203 71.2697 163.104 71.2697C159.769 71.2697 157.562 73.6217 157.562 77.3657V91.2857ZM198.059 91.2857H193.644V67.8137H197.589L198.012 70.8857C199.186 68.6777 201.628 67.1417 204.868 67.1417C208.438 67.1417 210.974 68.9657 212.148 71.8937C213.228 68.9657 215.999 67.1417 219.568 67.1417C224.828 67.1417 228.022 70.5017 228.022 75.9257V91.2857H223.701V77.0297C223.701 73.3337 221.681 71.2217 218.582 71.2217C215.247 71.2217 213.04 73.6217 213.04 77.3657V91.2857H208.673V76.9817C208.673 73.2857 206.7 71.2697 203.6 71.2697C200.266 71.2697 198.059 73.6217 198.059 77.3657V91.2857ZM250.015 67.8137H254.383V91.2857H250.438L249.968 87.7337C248.653 90.1817 245.6 91.8617 242.219 91.8617C236.865 91.8617 233.859 88.1657 233.859 82.4057V67.8137H238.274V80.9177C238.274 85.9577 240.387 87.8777 243.769 87.8777C247.808 87.8777 250.015 85.2377 250.015 80.1977V67.8137ZM265.202 91.2857H260.788V67.8137H264.78L265.249 71.4137C266.705 68.7257 269.617 67.1417 272.857 67.1417C278.916 67.1417 281.687 70.9337 281.687 76.9337V91.2857H277.272V77.9417C277.272 73.1897 275.112 71.2697 271.73 71.2697C267.597 71.2697 265.202 74.2937 265.202 78.8537V91.2857ZM289.961 62.2457C288.364 62.2457 287.049 60.9017 287.049 59.2697C287.049 57.5897 288.364 56.2937 289.961 56.2937C291.558 56.2937 292.873 57.5897 292.873 59.2697C292.873 60.9017 291.558 62.2457 289.961 62.2457ZM287.801 91.2857V67.8137H292.215V91.2857H287.801ZM305.105 91.2857H300.691V71.6057H296.183V67.8137H300.691V60.4697H305.105V67.8137H309.613V71.6057H305.105V91.2857ZM311.368 101.798V98.1017H314.326C316.44 98.1017 318.13 97.7657 319.211 94.7897L320.009 92.5337L310.757 67.8137H315.406L322.075 86.7257L328.885 67.8137H333.44L322.592 96.5657C321.042 100.598 318.741 102.278 315.219 102.278C313.763 102.278 312.542 102.086 311.368 101.798Z" fill="#9C9C9C"/>
</svg>
